<mxfile host="app.diagrams.net" agent="Mozilla/5.0 (Windows NT 10.0; Win64; x64) AppleWebKit/537.36 (KHTML, like Gecko) Chrome/129.0.0.0 Safari/537.36" version="24.7.17">
  <diagram id="dRwxfQvm0KaJVzzhkMlE" name="Page-1">
    <mxGraphModel dx="1615" dy="857" grid="1" gridSize="10" guides="1" tooltips="1" connect="1" arrows="1" fold="1" page="1" pageScale="1" pageWidth="1100" pageHeight="850" math="0" shadow="0">
      <root>
        <mxCell id="0" />
        <mxCell id="1" parent="0" />
        <mxCell id="ENEq_T54bImaBNmlopPO-1" value="Participante &lt;font color=&quot;#ff0000&quot;&gt;ConcretObserver&lt;/font&gt;" style="swimlane;fontStyle=1;align=center;verticalAlign=top;childLayout=stackLayout;horizontal=1;startSize=26;horizontalStack=0;resizeParent=1;resizeParentMax=0;resizeLast=0;collapsible=1;marginBottom=0;whiteSpace=wrap;html=1;" vertex="1" parent="1">
          <mxGeometry x="300" y="30" width="220" height="150" as="geometry" />
        </mxCell>
        <mxCell id="ENEq_T54bImaBNmlopPO-2" value="- respuestasCorrectas: int" style="text;strokeColor=none;fillColor=none;align=left;verticalAlign=top;spacingLeft=4;spacingRight=4;overflow=hidden;rotatable=0;points=[[0,0.5],[1,0.5]];portConstraint=eastwest;whiteSpace=wrap;html=1;" vertex="1" parent="ENEq_T54bImaBNmlopPO-1">
          <mxGeometry y="26" width="220" height="26" as="geometry" />
        </mxCell>
        <mxCell id="ENEq_T54bImaBNmlopPO-3" value="" style="line;strokeWidth=1;fillColor=none;align=left;verticalAlign=middle;spacingTop=-1;spacingLeft=3;spacingRight=3;rotatable=0;labelPosition=right;points=[];portConstraint=eastwest;strokeColor=inherit;" vertex="1" parent="ENEq_T54bImaBNmlopPO-1">
          <mxGeometry y="52" width="220" height="8" as="geometry" />
        </mxCell>
        <mxCell id="ENEq_T54bImaBNmlopPO-4" value="&lt;div&gt;&lt;br&gt;&lt;/div&gt;+ responder(int): String // position&lt;div&gt;+ sumarRespuestaCorrecta()&lt;/div&gt;&lt;div&gt;&lt;br&gt;&lt;/div&gt;" style="text;strokeColor=none;fillColor=none;align=left;verticalAlign=top;spacingLeft=4;spacingRight=4;overflow=hidden;rotatable=0;points=[[0,0.5],[1,0.5]];portConstraint=eastwest;whiteSpace=wrap;html=1;" vertex="1" parent="ENEq_T54bImaBNmlopPO-1">
          <mxGeometry y="60" width="220" height="90" as="geometry" />
        </mxCell>
        <mxCell id="ENEq_T54bImaBNmlopPO-9" value="Pregunta" style="swimlane;fontStyle=1;align=center;verticalAlign=top;childLayout=stackLayout;horizontal=1;startSize=26;horizontalStack=0;resizeParent=1;resizeParentMax=0;resizeLast=0;collapsible=1;marginBottom=0;whiteSpace=wrap;html=1;" vertex="1" parent="1">
          <mxGeometry x="40" y="310" width="220" height="150" as="geometry" />
        </mxCell>
        <mxCell id="ENEq_T54bImaBNmlopPO-10" value="- enunciado: String&lt;div&gt;- respuesta: String&lt;/div&gt;&lt;div&gt;&amp;nbsp;&lt;/div&gt;" style="text;strokeColor=none;fillColor=none;align=left;verticalAlign=top;spacingLeft=4;spacingRight=4;overflow=hidden;rotatable=0;points=[[0,0.5],[1,0.5]];portConstraint=eastwest;whiteSpace=wrap;html=1;" vertex="1" parent="ENEq_T54bImaBNmlopPO-9">
          <mxGeometry y="26" width="220" height="44" as="geometry" />
        </mxCell>
        <mxCell id="ENEq_T54bImaBNmlopPO-11" value="" style="line;strokeWidth=1;fillColor=none;align=left;verticalAlign=middle;spacingTop=-1;spacingLeft=3;spacingRight=3;rotatable=0;labelPosition=right;points=[];portConstraint=eastwest;strokeColor=inherit;" vertex="1" parent="ENEq_T54bImaBNmlopPO-9">
          <mxGeometry y="70" width="220" height="8" as="geometry" />
        </mxCell>
        <mxCell id="ENEq_T54bImaBNmlopPO-12" value="&lt;div&gt;&lt;u&gt;new(String, String)&lt;/u&gt;&lt;/div&gt;+ getEnunciado(): String&lt;div&gt;+ getRespuesta(): String&lt;br&gt;&lt;/div&gt;&lt;div&gt;+ verificaRespuesta(String) : Boolean&lt;/div&gt;" style="text;strokeColor=none;fillColor=none;align=left;verticalAlign=top;spacingLeft=4;spacingRight=4;overflow=hidden;rotatable=0;points=[[0,0.5],[1,0.5]];portConstraint=eastwest;whiteSpace=wrap;html=1;" vertex="1" parent="ENEq_T54bImaBNmlopPO-9">
          <mxGeometry y="78" width="220" height="72" as="geometry" />
        </mxCell>
        <mxCell id="ENEq_T54bImaBNmlopPO-37" style="edgeStyle=orthogonalEdgeStyle;rounded=0;orthogonalLoop=1;jettySize=auto;html=1;entryX=1;entryY=0.5;entryDx=0;entryDy=0;endArrow=open;endFill=0;" edge="1" parent="1" source="ENEq_T54bImaBNmlopPO-17" target="ENEq_T54bImaBNmlopPO-1">
          <mxGeometry relative="1" as="geometry" />
        </mxCell>
        <mxCell id="ENEq_T54bImaBNmlopPO-38" value="participantes" style="edgeLabel;html=1;align=center;verticalAlign=middle;resizable=0;points=[];" vertex="1" connectable="0" parent="ENEq_T54bImaBNmlopPO-37">
          <mxGeometry x="-0.0387" y="-3" relative="1" as="geometry">
            <mxPoint as="offset" />
          </mxGeometry>
        </mxCell>
        <mxCell id="ENEq_T54bImaBNmlopPO-39" value="*" style="edgeLabel;html=1;align=center;verticalAlign=middle;resizable=0;points=[];" vertex="1" connectable="0" parent="ENEq_T54bImaBNmlopPO-37">
          <mxGeometry x="0.8269" y="-3" relative="1" as="geometry">
            <mxPoint as="offset" />
          </mxGeometry>
        </mxCell>
        <mxCell id="ENEq_T54bImaBNmlopPO-17" value="Juego &lt;font color=&quot;#ff0000&quot;&gt;context / subject&lt;/font&gt;" style="swimlane;fontStyle=1;align=center;verticalAlign=top;childLayout=stackLayout;horizontal=1;startSize=26;horizontalStack=0;resizeParent=1;resizeParentMax=0;resizeLast=0;collapsible=1;marginBottom=0;whiteSpace=wrap;html=1;" vertex="1" parent="1">
          <mxGeometry x="370" y="370" width="340" height="380" as="geometry" />
        </mxCell>
        <mxCell id="ENEq_T54bImaBNmlopPO-20" value="&lt;div&gt;- CANT_MAX_PARTICIPANTES: int = 5&lt;/div&gt;&lt;div&gt;- CANT_MAX_PREGUNTAS: int = 5&lt;/div&gt;" style="text;strokeColor=none;fillColor=none;align=left;verticalAlign=top;spacingLeft=4;spacingRight=4;overflow=hidden;rotatable=0;points=[[0,0.5],[1,0.5]];portConstraint=eastwest;whiteSpace=wrap;html=1;" vertex="1" parent="ENEq_T54bImaBNmlopPO-17">
          <mxGeometry y="26" width="340" height="44" as="geometry" />
        </mxCell>
        <mxCell id="ENEq_T54bImaBNmlopPO-40" value="&lt;div&gt;&lt;span style=&quot;color: rgba(0, 0, 0, 0); font-family: monospace; font-size: 0px; text-wrap: nowrap; background-color: initial;&quot;&gt;nnew&lt;/span&gt;&lt;/div&gt;&lt;div&gt;&lt;u&gt;&lt;span style=&quot;color: rgba(0, 0, 0, 0); font-family: monospace; font-size: 0px; text-wrap: nowrap; background-color: initial;&quot;&gt;new%3CmxGraphModel%3E%3Croot%3E%3CmxCell%20id%3D%220%22%2F%3E%3CmxCell%20id%3D%221%22%20parent%3D%220%22%2F%3E%3CmxCell%20id%3D%222%22%20value%3D%22%22%20style%3D%22line%3BstrokeWidth%3D1%3BfillColor%3Dnone%3Balign%3Dleft%3BverticalAlign%3Dmiddle%3BspacingTop%3D-1%3BspacingLeft%3D3%3BspacingRight%3D3%3Brotatable%3D0%3BlabelPosition%3Dright%3Bpoints%3D%5B%5D%3BportConstraint%3Deastwest%3BstrokeColor%3Dinherit%3B%22%20vertex%3D%221%22%20parent%3D%221%22%3E%3CmxGeometry%20x%3D%22220%22%20y%3D%22430%22%20width%3D%22180%22%20height%3D%228%22%20as%3D%22geometry%22%2F%3E%3C%2FmxCell%3E%3C%2Froot%3E%3C%2FmxGraphModel3Enew&lt;/span&gt;&lt;span style=&quot;background-color: initial;&quot;&gt;new()&lt;/span&gt;&lt;/u&gt;&lt;/div&gt;&lt;div&gt;&lt;span style=&quot;background-color: initial;&quot;&gt;+ setEstadoJuego(EstadoJuego)&lt;/span&gt;&lt;/div&gt;&lt;div&gt;- hayDisponibilidad(Jugador)&lt;/div&gt;&lt;div&gt;+ solicitarSumarse(Jugador)&lt;/div&gt;&lt;div&gt;+ sumar(Jugador)&lt;br&gt;&lt;/div&gt;&lt;div&gt;+ addPregunta(Pregunta)&lt;/div&gt;&lt;div&gt;- removePregunta(Pregunta)&lt;/div&gt;&lt;div&gt;&lt;div&gt;+ notificarInicioDeJuego(Juego)&lt;span style=&quot;background-color: initial;&quot;&gt;&lt;br&gt;&lt;/span&gt;&lt;/div&gt;&lt;div&gt;&lt;span style=&quot;background-color: initial;&quot;&gt;+&lt;/span&gt;&lt;span style=&quot;background-color: initial;&quot;&gt;&amp;nbsp;notificarRespuestaCorrecta(Juego, Participante)&lt;/span&gt;&lt;/div&gt;&lt;div&gt;&lt;span style=&quot;background-color: initial;&quot;&gt;+&lt;/span&gt;&lt;span style=&quot;background-color: initial;&quot;&gt;&amp;nbsp;notificarRespuestaIncorrecta(Juego, Participante)&lt;/span&gt;&lt;span style=&quot;background-color: initial;&quot;&gt;&lt;br&gt;&lt;/span&gt;&lt;/div&gt;&lt;div&gt;&lt;span style=&quot;background-color: initial;&quot;&gt;+ notificarRespuestaCorrectaGeneral(Juego, Participante, String)&lt;/span&gt;&lt;/div&gt;&lt;div&gt;&lt;span style=&quot;background-color: initial;&quot;&gt;+ notificarGanador(Juego, Participante)&lt;/span&gt;&lt;/div&gt;&lt;/div&gt;" style="text;strokeColor=default;fillColor=none;align=left;verticalAlign=top;spacingLeft=4;spacingRight=4;overflow=hidden;rotatable=0;points=[[0,0.5],[1,0.5]];portConstraint=eastwest;whiteSpace=wrap;html=1;" vertex="1" parent="ENEq_T54bImaBNmlopPO-17">
          <mxGeometry y="70" width="340" height="310" as="geometry" />
        </mxCell>
        <mxCell id="ENEq_T54bImaBNmlopPO-21" style="edgeStyle=orthogonalEdgeStyle;rounded=0;orthogonalLoop=1;jettySize=auto;html=1;entryX=1;entryY=0.5;entryDx=0;entryDy=0;endArrow=open;endFill=0;exitX=-0.015;exitY=0.316;exitDx=0;exitDy=0;exitPerimeter=0;" edge="1" parent="1" source="ENEq_T54bImaBNmlopPO-20" target="ENEq_T54bImaBNmlopPO-10">
          <mxGeometry relative="1" as="geometry">
            <mxPoint x="710" y="430" as="sourcePoint" />
          </mxGeometry>
        </mxCell>
        <mxCell id="ENEq_T54bImaBNmlopPO-22" value="preguntas" style="edgeLabel;html=1;align=center;verticalAlign=middle;resizable=0;points=[];" vertex="1" connectable="0" parent="ENEq_T54bImaBNmlopPO-21">
          <mxGeometry x="-0.0763" relative="1" as="geometry">
            <mxPoint as="offset" />
          </mxGeometry>
        </mxCell>
        <mxCell id="ENEq_T54bImaBNmlopPO-23" value="*" style="edgeLabel;html=1;align=center;verticalAlign=middle;resizable=0;points=[];" vertex="1" connectable="0" parent="ENEq_T54bImaBNmlopPO-21">
          <mxGeometry x="0.7106" y="-1" relative="1" as="geometry">
            <mxPoint as="offset" />
          </mxGeometry>
        </mxCell>
        <mxCell id="ENEq_T54bImaBNmlopPO-44" style="edgeStyle=orthogonalEdgeStyle;rounded=0;orthogonalLoop=1;jettySize=auto;html=1;endArrow=block;endFill=0;" edge="1" parent="1" source="ENEq_T54bImaBNmlopPO-24">
          <mxGeometry relative="1" as="geometry">
            <mxPoint x="1000" y="400" as="targetPoint" />
          </mxGeometry>
        </mxCell>
        <mxCell id="ENEq_T54bImaBNmlopPO-24" value="EstadoInicio&lt;font color=&quot;#ff0000&quot;&gt; ConcrateStateClass&lt;/font&gt;" style="swimlane;fontStyle=1;align=center;verticalAlign=top;childLayout=stackLayout;horizontal=1;startSize=40;horizontalStack=0;resizeParent=1;resizeParentMax=0;resizeLast=0;collapsible=1;marginBottom=0;whiteSpace=wrap;html=1;" vertex="1" parent="1">
          <mxGeometry x="780" y="510" width="190" height="124" as="geometry" />
        </mxCell>
        <mxCell id="ENEq_T54bImaBNmlopPO-25" value="&lt;div&gt;- hayDisponibilidad(Jugador)&lt;/div&gt;&lt;div&gt;+ condicion(Juego)&lt;/div&gt;&lt;div&gt;+ siguienteEstado(): EstadoJuego&lt;br&gt;&lt;/div&gt;" style="text;strokeColor=none;fillColor=none;align=left;verticalAlign=top;spacingLeft=4;spacingRight=4;overflow=hidden;rotatable=0;points=[[0,0.5],[1,0.5]];portConstraint=eastwest;whiteSpace=wrap;html=1;" vertex="1" parent="ENEq_T54bImaBNmlopPO-24">
          <mxGeometry y="40" width="190" height="84" as="geometry" />
        </mxCell>
        <mxCell id="ENEq_T54bImaBNmlopPO-46" style="edgeStyle=orthogonalEdgeStyle;rounded=0;orthogonalLoop=1;jettySize=auto;html=1;endArrow=block;endFill=0;" edge="1" parent="1" source="ENEq_T54bImaBNmlopPO-27">
          <mxGeometry relative="1" as="geometry">
            <mxPoint x="1070" y="400" as="targetPoint" />
          </mxGeometry>
        </mxCell>
        <mxCell id="ENEq_T54bImaBNmlopPO-27" value="EstadoFinalizado&amp;nbsp;&lt;span style=&quot;color: rgb(255, 0, 0);&quot;&gt;ConcrateStateClass&lt;/span&gt;" style="swimlane;fontStyle=1;align=center;verticalAlign=top;childLayout=stackLayout;horizontal=1;startSize=26;horizontalStack=0;resizeParent=1;resizeParentMax=0;resizeLast=0;collapsible=1;marginBottom=0;whiteSpace=wrap;html=1;" vertex="1" parent="1">
          <mxGeometry x="1090" y="550" width="220" height="76" as="geometry" />
        </mxCell>
        <mxCell id="ENEq_T54bImaBNmlopPO-28" value="+ notificarGanador(Juego, Participante)&lt;div&gt;+ condicion(Juego)&lt;/div&gt;&lt;div&gt;+ siguienteEstado(): EstadoJuego&lt;br&gt;&lt;/div&gt;" style="text;strokeColor=none;fillColor=none;align=left;verticalAlign=top;spacingLeft=4;spacingRight=4;overflow=hidden;rotatable=0;points=[[0,0.5],[1,0.5]];portConstraint=eastwest;whiteSpace=wrap;html=1;" vertex="1" parent="ENEq_T54bImaBNmlopPO-27">
          <mxGeometry y="26" width="220" height="50" as="geometry" />
        </mxCell>
        <mxCell id="ENEq_T54bImaBNmlopPO-33" value="&lt;span style=&quot;font-weight: normal;&quot;&gt;&lt;i&gt;&amp;lt;&amp;lt;abstract&amp;gt;&amp;gt;&amp;nbsp;&lt;/i&gt;&lt;/span&gt;&lt;div&gt;EstadoJuego&lt;font color=&quot;#ff0000&quot;&gt; AbsractState / AbstractClass&lt;/font&gt;&lt;/div&gt;" style="swimlane;fontStyle=1;align=center;verticalAlign=top;childLayout=stackLayout;horizontal=1;startSize=50;horizontalStack=0;resizeParent=1;resizeParentMax=0;resizeLast=0;collapsible=1;marginBottom=0;whiteSpace=wrap;html=1;" vertex="1" parent="1">
          <mxGeometry x="900" y="210" width="360" height="188" as="geometry" />
        </mxCell>
        <mxCell id="ENEq_T54bImaBNmlopPO-35" value="" style="line;strokeWidth=1;fillColor=none;align=left;verticalAlign=middle;spacingTop=-1;spacingLeft=3;spacingRight=3;rotatable=0;labelPosition=right;points=[];portConstraint=eastwest;strokeColor=inherit;" vertex="1" parent="ENEq_T54bImaBNmlopPO-33">
          <mxGeometry y="50" width="360" height="8" as="geometry" />
        </mxCell>
        <mxCell id="ENEq_T54bImaBNmlopPO-36" value="&lt;div&gt;+ condicion(&lt;span style=&quot;background-color: initial;&quot;&gt;Juego&lt;/span&gt;&lt;span style=&quot;background-color: initial;&quot;&gt;): Boolean&amp;nbsp;&lt;/span&gt;&lt;/div&gt;&lt;div&gt;&lt;span style=&quot;background-color: initial;&quot;&gt;+ siguienteEstado(): EstadoJuego&amp;nbsp;&lt;/span&gt;&lt;/div&gt;&lt;div&gt;&lt;span style=&quot;background-color: initial;&quot;&gt;+ irASiguienteEstado(Juego) //&lt;font color=&quot;#ff0000&quot;&gt;templateMethod&amp;nbsp;&lt;/font&gt;&lt;/span&gt;&lt;/div&gt;&lt;div&gt;+ notificarInicioDeJuego(Juego)&lt;span style=&quot;background-color: initial;&quot;&gt;&lt;br&gt;&lt;/span&gt;&lt;/div&gt;&lt;div&gt;&lt;span style=&quot;background-color: initial;&quot;&gt;+&lt;/span&gt;&lt;span style=&quot;background-color: initial;&quot;&gt;&amp;nbsp;notificarRespuestaCorrecta(Juego, Participante)&lt;/span&gt;&lt;/div&gt;&lt;div&gt;&lt;span style=&quot;background-color: initial;&quot;&gt;+&lt;/span&gt;&lt;span style=&quot;background-color: initial;&quot;&gt;&amp;nbsp;notificarRespuestaIncorrecta(Juego, Participante)&lt;/span&gt;&lt;span style=&quot;background-color: initial;&quot;&gt;&lt;br&gt;&lt;/span&gt;&lt;/div&gt;&lt;div&gt;&lt;span style=&quot;background-color: initial;&quot;&gt;+ notificarRespuestaCorrectaGeneral(Juego, Participante, String)&lt;/span&gt;&lt;/div&gt;&lt;div&gt;&lt;span style=&quot;background-color: initial;&quot;&gt;+ notificarGanador(Juego, Participante)&lt;/span&gt;&lt;/div&gt;" style="text;strokeColor=none;fillColor=none;align=left;verticalAlign=top;spacingLeft=4;spacingRight=4;overflow=hidden;rotatable=0;points=[[0,0.5],[1,0.5]];portConstraint=eastwest;whiteSpace=wrap;html=1;" vertex="1" parent="ENEq_T54bImaBNmlopPO-33">
          <mxGeometry y="58" width="360" height="130" as="geometry" />
        </mxCell>
        <mxCell id="ENEq_T54bImaBNmlopPO-32" style="edgeStyle=orthogonalEdgeStyle;rounded=0;orthogonalLoop=1;jettySize=auto;html=1;endArrow=open;endFill=0;" edge="1" parent="1" source="ENEq_T54bImaBNmlopPO-20" target="ENEq_T54bImaBNmlopPO-33">
          <mxGeometry relative="1" as="geometry">
            <mxPoint x="820" y="381" as="targetPoint" />
          </mxGeometry>
        </mxCell>
        <mxCell id="ENEq_T54bImaBNmlopPO-45" style="edgeStyle=orthogonalEdgeStyle;rounded=0;orthogonalLoop=1;jettySize=auto;html=1;endArrow=block;endFill=0;" edge="1" parent="1" source="ENEq_T54bImaBNmlopPO-41">
          <mxGeometry relative="1" as="geometry">
            <mxPoint x="1030" y="400" as="targetPoint" />
          </mxGeometry>
        </mxCell>
        <mxCell id="ENEq_T54bImaBNmlopPO-41" value="EstadoJugando&amp;nbsp;&lt;span style=&quot;color: rgb(255, 0, 0);&quot;&gt;ConcrateStateClass&lt;/span&gt;" style="swimlane;fontStyle=1;align=center;verticalAlign=top;childLayout=stackLayout;horizontal=1;startSize=26;horizontalStack=0;resizeParent=1;resizeParentMax=0;resizeLast=0;collapsible=1;marginBottom=0;whiteSpace=wrap;html=1;" vertex="1" parent="1">
          <mxGeometry x="880" y="680" width="340" height="160" as="geometry" />
        </mxCell>
        <mxCell id="ENEq_T54bImaBNmlopPO-42" value="&lt;div&gt;+ siguienteEstado(): EstadoJuego&lt;br&gt;&lt;/div&gt;+ notificarInicioDeJuego(Juego)&lt;div&gt;+ condicion(&lt;span style=&quot;background-color: initial;&quot;&gt;Juego&lt;/span&gt;&lt;span style=&quot;background-color: initial;&quot;&gt;)&lt;/span&gt;&lt;/div&gt;&lt;div&gt;&lt;span style=&quot;background-color: initial;&quot;&gt;+ recibirPregunta(Participante, Pregunta)&lt;/span&gt;&lt;/div&gt;&lt;div&gt;&lt;div&gt;+ notificarRespuestaCorrecta(Participante)&lt;/div&gt;&lt;div&gt;&lt;span style=&quot;background-color: initial;&quot;&gt;+&lt;/span&gt;&lt;span style=&quot;background-color: initial;&quot;&gt;&amp;nbsp;notificarRespuestaIncorrecta(Juego, Participante)&lt;/span&gt;&lt;br&gt;&lt;/div&gt;&lt;div&gt;+ notificarRespuestaCorrectaGeneral(Participante, String)&lt;/div&gt;&lt;/div&gt;" style="text;strokeColor=none;fillColor=none;align=left;verticalAlign=top;spacingLeft=4;spacingRight=4;overflow=hidden;rotatable=0;points=[[0,0.5],[1,0.5]];portConstraint=eastwest;whiteSpace=wrap;html=1;" vertex="1" parent="ENEq_T54bImaBNmlopPO-41">
          <mxGeometry y="26" width="340" height="134" as="geometry" />
        </mxCell>
        <mxCell id="ENEq_T54bImaBNmlopPO-47" style="edgeStyle=orthogonalEdgeStyle;rounded=0;orthogonalLoop=1;jettySize=auto;html=1;exitX=0.5;exitY=0;exitDx=0;exitDy=0;entryX=0.568;entryY=0.064;entryDx=0;entryDy=0;entryPerimeter=0;" edge="1" parent="1" source="ENEq_T54bImaBNmlopPO-27" target="ENEq_T54bImaBNmlopPO-27">
          <mxGeometry relative="1" as="geometry" />
        </mxCell>
        <mxCell id="ENEq_T54bImaBNmlopPO-48" value="Complex Observer" style="html=1;whiteSpace=wrap;" vertex="1" parent="1">
          <mxGeometry x="580" y="60" width="110" height="50" as="geometry" />
        </mxCell>
        <mxCell id="ENEq_T54bImaBNmlopPO-49" value="template / state" style="html=1;whiteSpace=wrap;" vertex="1" parent="1">
          <mxGeometry x="980" y="140" width="110" height="50" as="geometry" />
        </mxCell>
      </root>
    </mxGraphModel>
  </diagram>
</mxfile>
